<svg xmlns="http://www.w3.org/2000/svg" version="1.1" xmlns:xlink="http://www.w3.org/1999/xlink" viewBox="0 0 1422 800" style="overflow: hidden; display: block;" width="1422" height="800"><defs></defs><g id="two-0" transform="matrix(1 0 0 1 0 0)" opacity="1"></g><path d="M 1300.6131494140625 447.5340881347656 Q 1300.6131494140625 447.5340881347656 1300.6131494140625 448.18471462249755 1300.6131494140625 448.8353411102295 1300.6081494140626 448.8353411102295 1300.6031494140625 448.8353411102295 1300.5981494140624 448.8353411102295 1300.5931494140625 448.8353411102295 1300.5931494140625 448.18471462249755 1300.5931494140625 447.5340881347656 1300.6031494140625 447.5340881347656 Z" fill="#0d2cfa"></path><path d="M 715.2602359062191 250.68016001490395 Q 715.2602359062191 250.68016001490395 699.1241794779405 248.07824663001213 682.988123049662 245.4763332451203 623.1215490186769 209.95353331706104 563.2549749876918 174.4307333890018 533.8956967867459 160.97408052860146 504.53641858580016 147.51742766820112 420.44161517052066 124.49799817218631 336.3468117552411 101.4785686761715 326.2663150001751 102.05557421443886 316.1858182451091 102.63257975270622 310.18938935569736 102.04111284326869 304.1929604662856 101.44964593383116 302.50893157261856 102.05694502613073 300.8249026789515 102.66424411843032 300.01235248661874 102.69397302864377 299.199802294286 102.7237019388572 299.70353077310426 104.41777259106827 300.20725925192255 106.11184324327934 301.3629343207498 110.83116243743459 302.5186093895771 115.55048163158985 310.08810933122527 122.02520963953617 317.6576092728735 128.49993764748248 330.1489874681438 138.17711996484633 342.6403656634141 147.8543022822102 357.8051101011035 158.66816781407374 372.96985453879284 169.48203334593725 389.74095953293966 179.6841098087334 406.5120645270865 189.8861862715296 424.61590055462943 199.68991992859958 442.71973658217235 209.4936535856696 460.24139903382996 218.1918968070172 477.7630614854876 226.89014002836478 500.0103347771671 237.73366332561847 522.2576080688466 248.57718662287215 548.3750691219839 263.07101257877594 574.4925301751213 277.56483853467967 596.5442980633616 290.7565623776506 618.596065951602 303.9482862206215 638.4463983504213 318.13421625792887 658.2967307492406 332.32014629523616 674.7115609551756 345.8544758935078 691.1263911611107 359.3888054917795 702.1922278430604 369.6512962425967 713.2580645250101 379.9137869934139 720.6028029303488 388.8602213937312 727.9475413356877 397.80665579404854 731.6013814535074 404.688194203476 735.2552215713271 411.5697326129034 736.9325446244718 417.4388635925321 738.6098676776166 423.30799457216074 738.3081527226425 429.51322283457455 738.0064377676682 435.71845109698836 733.3515815033077 442.04108380622836 728.6967252389471 448.3637165154684 719.4609426750097 450.3866404450257 710.2251601110723 452.409564374583 697.3297122554895 452.66032713122416 684.4342643999066 452.91108988786533 661.9231616719658 448.47732057393034 639.4120589440248 444.0435512599953 611.2803380020655 433.9934191516743 583.1486170601062 423.94328704335334 552.5980863999451 411.9624348265951 522.0475557397841 399.9815826098368 491.52559294418114 387.19154320030964 461.00363014857817 374.40150379078244 430.2852957980938 362.324893296716 399.56696144760934 350.24828280264956 371.8891303925658 339.2993590059831 344.21129933752223 328.3504352093167 326.9746269896573 322.7918559641319 309.73795464179227 317.23327671894714 297.9500041353145 314.26229657106194 286.1620536288367 311.29131642317674 270.97720862007577 311.3400203063285 255.7923636113148 311.3887241894802 253.32016972068513 310.4042734335162 250.84797583005545 309.4198226775522 248.68322579122946 307.87232689623727 246.51847575240345 306.3248311149223 244.78698493934803 304.3042308357751 243.05549412629264 302.283630556628 241.85789686641635 299.9073631628102 240.66029960654006 297.53109576899243 240.0662003088558 294.9372700330811 239.4721010111715 292.3434442971698 239.51602875477425 289.68281349280653 239.559956498377 287.02218268844325 240.23935820074468 284.4493828029868 240.91875990311235 281.87658291753036 242.1941487053818 279.54114520120595 243.4695375076512 277.2057074848816 245.2667877527106 275.2433676874921 247.06403799777 273.28102789010256 249.27869341693304 271.80583729287235 251.49334883609612 270.33064669564214 253.99669355234596 269.4283434453938 256.5000382685958 268.5260401951454 259.14657776940487 268.2490661991779 261.7931172702139 267.97209220321037 264.42903455544797 268.3365452031829 267.06495184068206 268.7009982031554 274.81664514086236 278.0153631672031 282.56833844104267 287.3297281312508 389.16950751955284 380.0318110566107 495.770676598063 472.7338939819706 527.5380838782345 500.6819475472933 559.305491158406 528.630001112616 574.106551114077 557.4560049314831 588.907611069748 586.2820087503502 588.9041320854208 586.2855999434737 588.9006531010934 586.2891911365972 588.8971741167661 586.2927823297207 588.8936951324389 586.2963735228442 560.2176709518244 573.003758513888 531.5416467712099 559.7111435049318 500.3133337726149 531.3907797114364 469.0850207740199 503.070415917941 359.63476918882543 405.721993997288 250.18451760363095 308.373572076635 252.98950782879956 309.88142984104286 255.7944980539682 311.38928760545065 253.32220573062403 310.4050840737976 250.8499134072799 309.4208805421445 248.68500862969978 307.87360124357053 246.52010385211966 306.3263219449966 244.78841098769414 304.3058948250335 243.0567181232686 302.28546770507035 241.85888324264133 299.9093200828597 240.66104836201404 297.53317246064904 240.0666896847271 294.93940614763653 239.47233100744015 292.345639834624 239.51599268774328 289.68500465078955 239.55965436804638 287.0243694669551 240.2387987870289 284.4515016541925 240.91794320601144 281.87863384143 242.19309845813268 279.54306859790273 243.46825371025392 277.2075033543755 245.26530771234764 275.24498384177343 247.06236171444138 273.28246432917143 249.27686960347168 271.80705227377564 251.49137749250198 270.33164021837985 253.99463196591023 269.4290866381718 256.4978864393185 268.5265330579637 259.1443982294953 268.2492944094314 261.7909100196721 267.97205576089914 264.4268637370265 268.3362451673213 267.06281745438093 268.70043457374345 282.01969839211625 268.80530182522796 296.9765793298516 268.9101690767124 310.2152125592642 272.546644026794 323.45384578867686 276.1831189768756 341.8202218153274 282.5257117868425 360.18659784197797 288.8683045968094 387.68597028577835 300.2528819318444 415.18534272957874 311.6374592668793 446.1394120516759 324.5078202930533 477.093481373773 337.3781813192273 506.942192417617 350.82504726657055 536.790903461461 364.2719132139139 566.5549457382966 377.19274317607847 596.3189880151323 390.1135731382431 621.8946142681067 400.97218858473104 647.4702405210811 411.8308040312189 666.7994155518891 417.81808350224674 686.1285905826969 423.8053629732746 696.7555519595028 425.34606277632616 707.3825133363088 426.8867625793777 709.8802179870021 427.5748409522074 712.3779226376954 428.2629193250371 710.3253794227236 430.63704343604206 708.2728362077518 433.0111675470471 707.9484269540674 433.95528831948815 707.6240177003829 434.8994090919292 706.6314232582008 434.17261890232123 705.6388288160186 433.44582871271325 701.3618990045329 429.7831278587719 697.0849691930471 426.1204270048305 689.9365828731088 419.28392689921407 682.7881965531705 412.4474267935977 672.7656543364734 402.9677968583924 662.7431121197764 393.4881669231871 647.6037942657188 380.76308224503487 632.4644764116613 368.03799756688255 614.2095029531168 354.6741372424966 595.9545294945724 341.3102769181106 574.6301508765516 328.2318445399319 553.3057722585307 315.1534121617532 528.2954087584213 300.83012976721136 503.285045258312 286.5068473726696 480.9881220570479 275.07256582660705 458.6911988557839 263.6382842805445 440.76665596803 253.94028060467997 422.84211308027614 244.24227692881541 404.2208673859273 233.03610376198748 385.5996216915785 221.82993059515957 368.2817451005751 209.70986779192936 350.9638685095717 197.58980498869911 335.98832873094153 184.79160918686205 321.0127889523114 171.99341338502495 308.64719872660544 159.39336223680795 296.28160850089955 146.79331108859097 288.2028029991161 134.9390131093729 280.1239974973326 123.08471513015483 277.37626511566975 114.70246985896787 274.62853273400685 106.32022458778093 275.1771711046117 97.5485228568446 275.7258094752166 88.77682112590827 280.1967759636579 82.25590314972686 284.6677424520992 75.73498517354544 292.21601011606793 71.12621111202554 299.76427778003665 66.51743705050563 308.29316807077237 64.62820616632763 316.8220583615081 62.73897528214963 331.61752343100676 63.72734144019 346.41298850050543 64.71570759823038 433.28959394658284 90.09164513433575 520.1661993926602 115.46758267044113 550.3610434664765 131.2702660653336 580.5558875402929 147.07294946022606 638.0240220463409 185.85476671045816 695.4921565523888 224.63658396069027 705.3813411824599 237.649797055901 715.2705258125309 250.66301015111168 715.265380859375 250.6715850830078 Z" fill="#0d2cfa"></path></svg>