<svg xmlns="http://www.w3.org/2000/svg" version="1.1" xmlns:xlink="http://www.w3.org/1999/xlink" viewBox="0 0 800 800" style="overflow: hidden; display: block;" width="800" height="800"><defs></defs><g id="two-0" transform="matrix(1 0 0 1 0 0)" opacity="1"></g><path d="M 380.35911405430113 309.9543890822227 Q 380.35911405430113 309.9543890822227 372.64530470594764 305.56165164175826 364.9314953575941 301.16891420129383 361.570894818534 297.5338695305529 358.2102942794739 293.89882485981195 355.6228583975087 290.6695576652128 353.03542251554353 287.44029047061366 349.8610525121043 283.1055981645419 346.6866825086651 278.77090585847014 344.505868148276 274.7576334972649 342.325053787887 270.7443611360597 340.80064580315286 267.4039131828399 339.2762378184187 264.0634652296202 338.21052606762385 260.55517227222623 337.144814316829 257.04687931483227 336.64357269267794 253.5260166440693 336.14233106852686 250.00515397330634 336.2201228740396 247.01009421152807 336.2979146795524 244.0150344497498 337.0491010810258 240.8338407935528 337.80028748249924 237.6526471373558 339.91421588517727 235.25588066769356 342.0281442878553 232.8591141980313 344.63952886059303 231.53584980010032 347.2509134333308 230.21258540216934 350.08333086038454 229.1642754524861 352.9157482874383 228.11596550280282 358.2335365830344 227.9795118166118 363.5513248786305 227.84305813042076 370.3006709843389 229.2733753565982 377.0500170900474 230.70369258277566 385.6131274328502 234.50223958578573 394.176237775653 238.30078658879583 404.51888825720175 243.62511626728087 414.8615387387505 248.94944594576594 426.07858221154765 255.67408843891255 437.2956256843449 262.39873093205915 446.4334375574448 269.32797460902225 455.5712494305447 276.25721828598535 462.82881078008336 284.7386908408608 470.086372129622 293.2201633957362 475.0775825966432 301.20026181121557 480.0687930636643 309.180360226695 483.31633564589924 316.9160199889906 486.5638782281341 324.6516797512863 488.42480323189915 331.0605828158441 490.2857282356642 337.4694858804019 491.1774768022457 344.19693841686137 492.0692253688271 350.9243909533209 492.36006467990256 357.73647779661553 492.650903990978 364.5485646399101 491.82975919217427 371.1111628848339 491.00861439337046 377.67376112975774 490.1122928523789 382.57596775419916 489.2159713113874 387.4781743786406 485.9370966858345 393.5328948248688 482.6582220602816 399.58761527109704 478.51830875986786 404.73993732647705 474.37839545945405 409.8922593818571 467.4906675930749 415.4193794667751 460.6029397266957 420.9464995516932 450.7464641349933 426.2797793661603 440.8899885432909 431.61305918062743 426.2268774826847 436.542397580504 411.5637664220785 441.4717359803805 391.1004667258826 443.3985965306106 370.6371670296867 445.32545708084064 346.644947385448 444.1845600593638 322.65272774120933 443.043663037887 296.40095891078965 436.7231516644147 270.14919008037 430.4026402909424 244.67173624826145 421.82421193900973 219.19428241615293 413.2457835870771 198.42725956099406 404.4534043744692 177.66023670583516 395.66102516186123 162.16186968741374 387.74737583207684 146.6635026689923 379.83372650229245 134.6553237354252 372.1714708823456 122.6471448018581 364.5092152623987 115.86851092949247 357.9701838709109 109.08987705712684 351.4311524794231 105.6628175131708 346.60739235157416 102.23575796921475 341.78363222372525 101.70119737145416 339.3385654823154 101.16663677369358 336.89349874090556 99.98815634529224 335.39585951745073 98.8096759168909 333.8982202939959 98.0238618685805 332.16206487317856 97.23804782027011 330.4259094523612 96.89057170145979 328.5521432688122 96.54309558264947 326.6783770852631 96.65415272169058 324.77590351760875 96.76520986073169 322.87342994995447 97.32834561148515 321.0528208513342 97.89148136223861 319.232211752714 98.87396624841182 317.59928100948065 99.85645113458501 315.9663502662473 101.20118308843172 314.6160038899204 102.54591504227842 313.2656575135936 104.1747381794591 312.27637769901116 105.80356131663979 311.2870978844287 107.62180835989156 310.7163816208953 109.44005540314335 310.14566535736185 111.34204974888246 310.026682700929 113.24404409462159 309.90770004449615 115.11924174210887 310.24736627274615 116.99443938959615 310.5870325009961 118.73385376345385 311.36560619678386 120.47326813731155 312.14417989257163 121.97580439240502 313.3164103161169 123.47834064749848 314.4886407396622 116.85056004581497 311.9284604343528 110.22277944413148 309.3682801290434 116.72107184452453 309.29157653727793 123.21936424491759 309.2148729455124 133.2904834444874 309.9598825906184 143.36160264405717 310.7048922357244 155.65214176381426 312.94699104051836 167.94268088357137 315.18908984531225 182.14709964939914 319.21941681754424 196.35151841522688 323.24974378977623 210.16018674030818 329.25243892790013 223.96885506538948 335.2551340660241 236.70430051559356 341.7998690890107 249.43974596579764 348.3446041119973 259.44656285159095 355.0814328705101 269.4533797373843 361.81826162902297 278.4013042922736 369.36687089999634 287.349228847163 376.91548017096966 295.5449254462401 384.8279966174846 303.7406220453172 392.74051306399946 308.8806822251485 399.6422691150417 314.02074240497984 406.5440251660839 318.9102270704889 414.5429157046375 323.79971173599796 422.5418062431911 327.24617886596985 429.6738879997586 330.69264599594175 436.80596975632614 332.72484967269236 443.9054986561457 334.757053349443 451.0050275559652 335.904007374794 456.7667117031326 337.05096140014496 462.5283958503 337.7589032444747 468.4076201089779 338.4668450888044 474.28684436765576 338.1332717451734 479.505385949994 337.7996984015423 484.7239275323322 337.4279528969764 487.8944629044681 337.05620739241056 491.06499827660406 336.0926122249869 495.02246422306246 335.12901705756326 498.9799301695208 332.17246527301495 503.4835327222155 329.2159134884667 507.98713527491014 325.66258086262485 510.7247767267696 322.10924823678306 513.4624181786292 317.8688703522739 515.6805487917431 313.6284924677648 517.8986794048571 307.3136072648832 520.1902679662437 300.9987220620016 522.4818565276303 291.2489448367514 523.6581222559515 281.49916761150115 524.8343879842728 270.7887515477544 525.6841094334097 260.0783354840076 526.5338308825466 245.130795129746 524.802361772347 230.1832547754844 523.0708926621475 213.77059303683353 518.2641531543655 197.35793129818265 513.4574136465836 180.53252505328393 506.20006710591974 163.70711880838522 498.9427205652559 147.44692341551485 491.12778335478384 131.1867280226445 483.3128461443118 118.9889048878143 476.7760943554855 106.7910817529841 470.2393425666593 98.11619180418128 462.7910815969833 89.44130185537848 455.3428206273073 84.4987481518136 450.5507991816023 79.5561944482487 445.75877773589735 76.4411256992516 441.07332060164276 73.3260569502545 436.3878634673881 74.94345283458631 425.23639265884566 76.56084871891812 414.0849218503032 78.841172325407 412.4387448805572 81.1214959318959 410.79256791081116 89.44276956519286 411.3443128496129 97.76404319848982 411.8960577884146 107.29791279434173 414.8077537593899 116.83178239019362 417.7194497303652 128.57928272662338 422.48262949758595 140.32678306305314 427.24580926480667 153.20580574589275 433.2624346692752 166.08482842873232 439.27906007374366 179.61038828403505 447.2549637042449 193.13594813933778 455.2308673347461 206.8571157454064 464.3188020396459 220.578283351475 473.40673674454564 233.6158706772869 484.04908326977437 246.6534580030988 494.6914297950031 257.177525838104 504.15985361379865 267.70159367310913 513.6282774325941 274.511855597191 521.912722261812 281.32211752127284 530.1971670910298 286.1590707909703 538.5839212912999 290.99602406066776 546.9706754915702 293.6554553358802 553.1986112762527 296.3148866110926 559.4265470609351 297.68667022594514 564.3935805193919 299.0584538407977 569.3606139778486 299.434218746985 574.8295456836315 299.80998365317225 580.2984773894143 299.77524898885713 584.0666561283599 299.74051432454206 587.8348348673055 299.3333442852407 591.7886363043956 298.9261742459393 595.7424377414857 298.48607553553273 599.4172782091863 298.04597682512616 603.0921186768869 297.0641327737034 607.4770849385131 296.0822887222807 611.8620512001393 291.4646779466716 620.5270803618978 286.84706717106246 629.1921095236562 279.7571865139884 632.6627480311149 272.66730585691437 636.1333865385736 266.3489946145936 633.2457744193067 260.0306833722729 630.3581623000398 260.0295905661736 630.3532831838463 260.0284977600743 630.3484040676528 260.02740495397495 630.3435249514594 260.0263121478757 630.3386458352659 263.1407731151602 625.3383168641665 266.25523408244464 620.3379878930671 269.60938872646483 619.5404386389775 272.963543370485 618.742889384888 275.6222881004487 613.8487734322894 278.28103283041236 608.9546574796906 278.3374370219233 606.0098647682362 278.3938412134342 603.0650720567817 277.9536668354109 599.4189033982669 277.5134924573876 595.7727347397522 277.09742034553324 593.4349207994868 276.6813482336789 591.0971068592214 275.5993109160718 587.5354491537707 274.5172735984647 583.9737914483201 273.8278894242319 582.112599755458 273.13850524999907 580.2514080625959 271.34200033656737 577.8616783704994 269.5454954231356 575.4719486784028 265.895203816556 571.2019132812678 262.2449122099763 566.9318778841329 257.62173439568033 561.6968788466806 252.99855658138435 556.4618798092285 246.14253231414648 550.0509040929883 239.28650804690858 543.639928376748 229.87954411072195 534.24249873172 220.47258017453535 524.8450690866921 209.40867203700978 514.5629868199645 198.3447638994842 504.280904553237 185.89690059073513 494.53869415666225 173.44903728198605 484.7964837600874 161.85283732590167 476.0453826186515 150.2566373698173 467.2942814772155 139.07889735902302 459.72544018951396 127.90115734822871 452.15659890181234 118.742305558498 446.49336348266286 109.58345376876731 440.83012806351337 102.41740461309087 438.54198298805784 95.2513554574144 436.2538379126023 93.17286308843785 435.7764173475941 91.09437071946131 435.29899678258585 91.30738156925003 434.71789323868774 91.52039241903873 434.1367896947896 94.2121487391207 426.144706876626 96.90390505920269 418.1526240584624 98.03992375441757 418.7297676994755 99.17594244963246 419.3069113404886 105.78785139233077 422.9275529088201 112.39976033502906 426.5481944771515 119.4945892035519 431.6744902627969 126.58941807207472 436.8007860484422 137.49944255445683 443.90323663197637 148.40946703683898 451.0056872155105 163.56281389398794 459.935450133952 178.71616075113687 468.86521305239347 193.29522801925071 477.2786996927349 207.87429528736456 485.69218633307634 221.80097671850643 492.3588002230852 235.72765814964833 499.0254141130941 247.95159692053159 503.5231791869279 260.17553569141484 508.0209442607617 270.38037490809864 508.86153823403663 280.58521412478245 509.70213220731154 288.58278556518866 509.80457724598966 296.58035700559486 509.90702228466785 301.7480285877791 508.01013299742954 306.91570016996343 506.1132437101912 309.9873079136065 504.1427464519956 313.0589156572496 502.1722491938 314.7320506156084 500.7036130467253 316.4051855739671 499.2349768996506 317.6103331484961 497.4558633093526 318.8154807230251 495.67674971905456 318.8901028918933 493.35134796968146 318.96472506076157 491.0259462203084 318.59282759881165 487.8957841508777 318.22093013686174 484.765622081447 317.86947945392853 481.58940886263457 317.5180287709953 478.4131956438221 316.1227542268366 473.82115193624264 314.7274796826779 469.22910822866316 312.72394751637586 464.5105939098933 310.72041535007384 459.79207959112347 308.53728868988856 455.36432278957454 306.35416202970333 450.9365659880257 302.4528850164831 445.4944366690746 298.55160800326286 440.05230735012356 294.0077409622304 434.456223514138 289.463873921198 428.86013967815245 284.08816290405366 424.21692967587023 278.7124518869093 419.5737196735881 271.19227581789414 412.83554342373805 263.67209974887896 406.0973671738881 255.84790771926663 400.0422228743563 248.02371568965432 393.9870785748246 239.1377938168655 388.1496544815238 230.25187194407667 382.312230388223 218.89457306976084 375.253516392694 207.537274195445 368.19480239716495 196.20645734895103 361.6590743292934 184.87564050245706 355.1233462614218 172.9379600819235 349.76547666432725 161.00027966138998 344.40760706723273 151.3374976116886 341.4498635448913 141.6747155619872 338.4921200225499 134.0164553784581 338.2078134927271 126.35819519492901 337.9235069629043 123.48618415945874 338.89415078301215 120.61417312398848 339.86479460312006 110.89096512606798 338.3797044085952 101.16775712814749 336.8946142140703 99.98912694171645 335.3970928461463 98.81049675528541 333.8995714782223 98.0245090953623 332.16349464749044 97.2385214354392 330.4274178167586 96.89085794174821 328.5536863901902 96.54319444805724 326.6799549636218 96.6540613391866 324.7774702997659 96.76492823031597 322.8749856359101 97.3278819173442 321.05432023281793 97.89083560437241 319.23365482972577 98.87315719255915 317.6006258461686 99.85547878074587 315.96759686261146 101.20007569323151 314.6171160198412 102.54467260571715 313.26663517707095 104.17339680677242 312.2771924851214 105.8021210078277 311.28774979317194 107.62031097036198 310.71685170778807 109.43850093289628 310.1459536224042 111.3404833708598 310.026780767132 113.24246580882333 309.9076079118598 115.11769741355738 310.247086618647 116.99292901829145 310.5865653254342 118.73242124082152 311.36496507589203 120.4719134633516 312.14336482634985 121.97456693397456 313.3154449904087 123.4772204045975 314.48752515446756 125.07303496855724 316.2490411983734 126.66884953251696 318.0105572422792 129.58742597219964 319.505417537599 132.5060024118823 321.00027783291875 139.41168048256588 324.9681470991384 146.31735855324948 328.936016365358 156.36177801135983 335.9424807726872 166.40619746947016 342.94894518001644 180.31688303637605 350.7599118808804 194.22756860328192 358.57087858174435 213.33122164428107 367.57924684258137 232.43487468528025 376.58761510341844 256.17184997809534 385.7739562175534 279.9088252709105 394.96029733168837 302.84447948413043 402.17184867400493 325.7801336973504 409.3834000163215 347.7981510633346 412.38609743048835 369.81616842931885 415.38879484465514 388.0066175518547 416.2238817389872 406.1970666743905 417.05896863331924 419.72564116138534 415.6877155075101 433.2542156483802 414.316462381701 442.19213244735056 411.2638883011664 451.13004924632094 408.2113142206318 456.7631248810866 404.31433176858184 462.39620051585223 400.41734931653184 465.5680175460119 396.1455975575486 468.7398345761715 391.87384579856536 470.6609523112786 388.5043117746586 472.58207004638564 385.13477775075194 472.732715683215 380.59503607060225 472.88336132004446 376.05529439045256 473.09145768492044 371.0907569619719 473.29955404979637 366.12621953349134 472.5342210961724 360.3817456499801 471.76888814254846 354.63727176646876 470.5484441479837 349.8462615416422 469.3280001534188 345.0552513168156 466.982418652844 339.92793625672516 464.63683715226915 334.8006211966347 461.5747335437825 328.9147563421083 458.5126299352959 323.0288914875819 454.05273179721155 316.34046593410585 449.59283365912717 309.6520403806297 444.2491367075307 302.43552237537716 438.9054397559342 295.2190043701246 431.26269092563945 287.479908870147 423.6199420953447 279.74081337016946 414.95082105744143 270.7856457544839 406.2817000195381 261.8304781387983 397.80313616488047 254.6253452633834 389.32457231022283 247.42021238796846 382.2077963622069 242.88653707870014 375.091020414191 238.35286176943185 369.30194137934393 236.66867442609504 363.5128623444968 234.9844870827582 359.4422264754693 234.86583507595236 355.3715906064418 234.74718306914653 352.9773897890608 235.79318834125104 350.5831889716797 236.83919361335552 349.01514945190354 237.61921932464477 347.4471099321273 238.39924503593403 346.4375582412538 239.1616377851971 345.42800655038025 239.92403053446014 345.14105062685724 241.97852336488242 344.8540947033342 244.0330161953047 344.9408633245208 246.28245265487703 345.02763194570736 248.53188911444937 345.58248628318256 251.29374193805813 346.13734062065777 254.05559476166687 347.17484459887277 256.83009319175386 348.21234857708777 259.6045916218409 349.8383491982903 262.55586365719114 351.4643498194928 265.50713569254145 353.4897380647037 268.8324471917115 355.5151263099146 272.1577586908815 358.6146497042664 276.18229754568944 361.71417309861823 280.20683640049737 364.37163488875916 283.2695853755673 367.0290966789001 286.3323343506372 369.99488134912957 290.0707183754529 372.96066601935905 293.8091024002686 376.6672615782321 301.87498849496046 380.3738571371051 309.9408745896523 380.3664855957031 309.9476318359375 Z" fill="#0d2cfa"></path></svg>